HIERARCHY
ROOT Hips
{
	OFFSET 0.000000 0.000000 0.000000
	CHANNELS 6 Xposition Yposition Zposition Zrotation Yrotation Xrotation 
	JOINT LHipJoint
	{
		OFFSET 0.000000 0.000000 0.000000
		CHANNELS 3 Zrotation Yrotation Xrotation
		JOINT LeftUpLeg
		{
			OFFSET 1.363060 -1.794630 0.839290
			CHANNELS 3 Zrotation Yrotation Xrotation
			JOINT LeftLeg
			{
				OFFSET 2.448110 -6.726130 0.000000
				CHANNELS 3 Zrotation Yrotation Xrotation
				JOINT LeftFoot
				{
					OFFSET 2.562200 -7.039590 0.000000
					CHANNELS 3 Zrotation Yrotation Xrotation
					JOINT LeftToeBase
					{
						OFFSET 0.157640 -0.433110 2.322550
						CHANNELS 3 Zrotation Yrotation Xrotation
						End Site
						{
							OFFSET 0.000000 0.000000 0.000000
						}
					}
				}
			}
		}
	}
	JOINT RHipJoint
	{
		OFFSET 0.000000 0.000000 0.000000
		CHANNELS 3 Zrotation Yrotation Xrotation
		JOINT RightUpLeg
		{
			OFFSET -1.305520 -1.794630 0.839290
			CHANNELS 3 Zrotation Yrotation Xrotation
			JOINT RightLeg
			{
				OFFSET -2.542530 -6.985550 0.000000
				CHANNELS 3 Zrotation Yrotation Xrotation
				JOINT RightFoot
				{
					OFFSET -2.568260 -7.056230 0.000000
					CHANNELS 3 Zrotation Yrotation Xrotation
					JOINT RightToeBase
					{
						OFFSET -0.164730 -0.452590 2.363150
						CHANNELS 3 Zrotation Yrotation Xrotation
						End Site
						{
							OFFSET 0.000000 0.000000 0.000000
						}
					}
				}
			}
		}
	}
	JOINT LowerBack
	{
		OFFSET 0.000000 0.000000 0.000000
		CHANNELS 3 Zrotation Yrotation Xrotation
		JOINT Spine
		{
			OFFSET 0.028270 2.035590 -0.193380
			CHANNELS 3 Zrotation Yrotation Xrotation
			JOINT Spine1
			{
				OFFSET 0.056720 2.048850 -0.042750
				CHANNELS 3 Zrotation Yrotation Xrotation
				JOINT Neck
				{
					OFFSET 0.000000 0.000000 0.000000
					CHANNELS 3 Zrotation Yrotation Xrotation
					JOINT Neck1
					{
						OFFSET -0.054170 1.746240 0.172020
						CHANNELS 3 Zrotation Yrotation Xrotation
						JOINT Head
						{
							OFFSET 0.104070 1.761360 -0.123970
							CHANNELS 3 Zrotation Yrotation Xrotation
							End Site
							{
								OFFSET 0.000000 0.000000 0.000000
							}
						}
					}
				}
				JOINT LeftShoulder
				{
					OFFSET 0.000000 0.000000 0.000000
					CHANNELS 3 Zrotation Yrotation Xrotation
					JOINT LeftArm
					{
						OFFSET 3.362410 1.200890 -0.311210
						CHANNELS 3 Zrotation Yrotation Xrotation
						JOINT LeftForeArm
						{
							OFFSET 4.983000 -0.000000 -0.000000
							CHANNELS 3 Zrotation Yrotation Xrotation
							JOINT LeftHand
							{
								OFFSET 3.483560 -0.000000 -0.000000
								CHANNELS 3 Zrotation Yrotation Xrotation
								JOINT LeftFingerBase
								{
									OFFSET 0.000000 0.000000 0.000000
									CHANNELS 3 Zrotation Yrotation Xrotation
									JOINT LeftHandIndex1
									{
										OFFSET 0.715260 -0.000000 -0.000000
										CHANNELS 3 Zrotation Yrotation Xrotation
										End Site
										{
											OFFSET 0.000000 0.000000 0.000000
										}
									}
								}
								JOINT LThumb
								{
									OFFSET 0.000000 0.000000 0.000000
									CHANNELS 3 Zrotation Yrotation Xrotation
									End Site
									{
										OFFSET 0.000000 0.000000 0.000000
									}
								}
							}
						}
					}
				}
				JOINT RightShoulder
				{
					OFFSET 0.000000 0.000000 0.000000
					CHANNELS 3 Zrotation Yrotation Xrotation
					JOINT RightArm
					{
						OFFSET -3.136600 1.374050 -0.404650
						CHANNELS 3 Zrotation Yrotation Xrotation
						JOINT RightForeArm
						{
							OFFSET -5.241900 -0.000000 -0.000000
							CHANNELS 3 Zrotation Yrotation Xrotation
							JOINT RightHand
							{
								OFFSET -3.444170 -0.000000 -0.000000
								CHANNELS 3 Zrotation Yrotation Xrotation
								JOINT RightFingerBase
								{
									OFFSET 0.000000 0.000000 0.000000
									CHANNELS 3 Zrotation Yrotation Xrotation
									JOINT RightHandIndex1
									{
										OFFSET -0.622530 -0.000000 -0.000000
										CHANNELS 3 Zrotation Yrotation Xrotation
										End Site
										{
											OFFSET 0.000000 0.000000 0.000000
										}
									}
								}
								JOINT RThumb
								{
									OFFSET 0.000000 0.000000 0.000000
									CHANNELS 3 Zrotation Yrotation Xrotation
									End Site
									{
										OFFSET 0.000000 0.000000 0.000000
									}
								}
							}
						}
					}
				}
			}
		}
	}
}
MOTION
Frames: 11
Frame Time: 0.008333
0.616203 18.156572 -19.370553 -6.439722 -5.006775 1.744668 -1.658626 3.295524 2.115954 -7.175927 -7.623255 -31.017692 2.453821 12.093864 35.237595 -1.508726 7.382424 9.334489 0.136900 2.384700 6.570200 3.888362 -4.436222 5.498935 26.745268 11.732369 -5.205140 -0.549625 -6.067854 24.129525 1.449758 -5.692286 1.027166 -0.070100 -1.707700 4.698500 5.898976 1.575400 6.599031 3.930589 2.906859 1.994252 -1.187676 1.306406 -6.831279 -5.232982 -4.222759 -14.625093 3.696985 -4.837359 17.599377 -0.169500 -1.967500 9.360100 -7.319002 2.513565 -1.357911 -80.072888 5.682530 27.634931 12.410510 -21.579605 -2.649341 -0.954320 -1.301410 -4.073164 27.935125 20.594393 11.609400 -7.125000 0.000000 0.000000 0.211700 54.517000 0.049500 11.630078 -1.256937 -2.329557 70.937018 5.445794 20.129375 -12.137532 24.680590 -3.400864 1.258399 -0.418621 -0.813555 -19.760754 20.285338 -7.689400 7.125000 0.000000 0.000000 4.790400 -8.130000 4.079500
0.619552 18.155437 -19.270943 -6.527712 -5.006781 1.892131 -1.722017 3.255288 2.061836 -6.892209 -7.784983 -31.007174 2.119618 11.729136 33.915011 -1.647571 7.807053 8.985438 0.060256 0.997548 2.748733 3.913013 -4.442561 5.547864 26.776468 11.629405 -4.944624 -0.504281 -5.985238 23.900877 1.430829 -5.646237 0.897438 -0.065054 -1.644400 4.523964 5.988758 1.551674 6.472768 3.962479 2.876705 1.923198 -1.187823 1.295452 -6.840815 -5.344445 -4.165712 -14.516752 3.699714 -4.742073 17.573023 -0.139056 -1.933355 9.333805 -7.321229 2.520296 -1.359543 -80.222262 5.884488 27.260053 12.295401 -21.409141 -2.602278 -0.959591 -1.296076 -4.071121 27.968277 20.426779 11.541335 -7.125000 0.000000 0.000000 0.291539 54.334951 0.066600 11.636234 -1.254041 -2.326143 70.846293 5.525591 20.357823 -12.092837 24.616696 -3.373259 1.266114 -0.440671 -0.699069 -19.908167 20.593525 -7.866964 7.125000 0.000000 0.000000 4.717737 -7.767359 4.050513
0.622851 18.152397 -19.171505 -6.632872 -5.019436 2.039929 -1.786888 3.215940 2.008701 -6.584864 -7.946741 -30.978720 1.782703 11.351703 32.559250 -1.790996 8.248310 8.681097 0.006874 -0.262502 -0.721858 3.937133 -4.448499 5.595111 26.829524 11.540812 -4.679304 -0.462508 -5.906722 23.687238 1.412155 -5.600952 0.756089 -0.059571 -1.573736 4.329127 6.080346 1.538065 6.345997 4.007510 2.859996 1.856791 -1.177274 1.291433 -6.845263 -5.455632 -4.126513 -14.419185 3.693195 -4.668832 17.554760 -0.114666 -1.909997 9.312205 -7.323368 2.527216 -1.360670 -80.372644 6.074788 26.938034 12.181313 -21.238816 -2.555730 -0.963393 -1.289015 -4.127108 27.982580 20.196890 11.432233 -7.125000 0.000000 0.000000 0.364377 54.077817 0.081092 11.641564 -1.250505 -2.324691 70.734709 5.587065 20.601766 -12.071737 24.588767 -3.357914 1.271723 -0.461768 -0.627540 -20.008295 20.915344 -8.029288 7.125000 0.000000 0.000000 4.678176 -7.397656 4.050964
0.625973 18.142465 -19.072689 -6.800199 -5.077890 2.188938 -1.857116 3.179810 1.959128 -6.191978 -8.108605 -30.885324 1.435969 10.928273 31.083368 -1.951001 8.749769 8.538636 0.037710 -1.062353 -2.922037 3.959332 -4.452985 5.636270 26.961712 11.504248 -4.396587 -0.433667 -5.843051 23.527945 1.394409 -5.558438 0.572664 -0.052507 -1.476403 4.060791 6.178476 1.561091 6.217390 4.100116 2.891967 1.807204 -1.127998 1.312522 -6.831283 -5.565819 -4.151937 -14.360626 3.653196 -4.675408 17.565795 -0.112199 -1.925696 9.307608 -7.325191 2.534819 -1.359968 -80.526678 6.222880 26.807397 12.070921 -21.068997 -2.511049 -0.961871 -1.275699 -4.393203 27.928637 19.741523 11.174549 -7.125000 0.000000 0.000000 0.411866 53.548825 0.086138 11.643908 -1.244654 -2.330340 70.547598 5.582199 20.901812 -12.136065 24.691060 -3.386957 1.269703 -0.479412 -0.711545 -19.937222 21.286520 -8.136432 7.125000 0.000000 0.000000 4.758464 -7.002384 4.157995
0.630003 18.131255 -18.973333 -6.915360 -5.194763 2.329789 -1.934226 3.143462 1.906843 -5.860944 -8.226046 -30.807769 1.098855 10.494782 29.589236 -2.149331 9.373697 8.538631 0.052773 -1.480957 -4.073314 3.983047 -4.460833 5.681600 27.013998 11.471043 -4.110981 -0.401812 -5.780525 23.366066 1.353252 -5.456136 0.423669 -0.047748 -1.409940 3.877586 6.256062 1.613253 6.111561 4.142911 2.960044 1.761534 -1.124142 1.350691 -6.819897 -5.625539 -4.162892 -14.280474 3.631950 -4.680977 17.546202 -0.110970 -1.936008 9.287551 -7.325181 2.540476 -1.359663 -80.632428 6.357859 26.663659 11.975174 -20.922994 -2.472738 -0.961288 -1.263075 -4.583279 27.882692 19.339141 10.947370 -7.125000 0.000000 0.000000 0.453458 53.081401 0.089946 11.642949 -1.240965 -2.335117 70.429177 5.592418 21.211947 -12.224956 24.822883 -3.427596 1.267186 -0.486313 -0.789838 -19.904581 21.487990 -8.195744 7.125000 0.000000 0.000000 4.799171 -6.789121 4.213410
0.635225 18.118371 -18.873268 -6.962168 -5.388184 2.459952 -2.020353 3.106829 1.851003 -5.610958 -8.285278 -30.750970 0.774347 10.048107 28.071188 -2.397879 10.158102 8.725292 0.047167 -1.399997 -3.850168 4.008750 -4.473089 5.732396 26.961582 11.442240 -3.821591 -0.366008 -5.719496 23.200800 1.281420 -5.275492 0.319789 -0.046010 -1.383925 3.805932 6.306728 1.703594 6.035578 4.120435 3.075432 1.720996 -1.179801 1.411241 -6.811909 -5.619127 -4.154889 -14.172025 3.635278 -4.685230 17.486474 -0.111362 -1.939259 9.247239 -7.322770 2.543581 -1.359878 -80.674910 6.475657 26.502755 11.898619 -20.808197 -2.442776 -0.961935 -1.251358 -4.673746 27.847226 19.006188 10.760162 -7.125000 0.000000 0.000000 0.487322 52.694651 0.092133 11.637662 -1.240111 -2.338751 70.400761 5.622404 21.535302 -12.346034 24.993399 -3.483430 1.264017 -0.479138 -0.860644 -19.922300 21.467089 -8.192380 7.125000 0.000000 0.000000 4.788013 -6.814351 4.201187
0.640226 18.103534 -18.772983 -7.000887 -5.583834 2.561432 -2.112275 3.071714 1.790313 -5.349968 -8.351175 -30.676633 0.463805 9.578729 26.498878 -2.688926 11.088964 9.110385 0.070718 -1.669184 -4.593413 4.031793 -4.486331 5.785011 26.908426 11.409618 -3.538321 -0.345235 -5.682424 23.108853 1.210542 -5.100410 0.180160 -0.043507 -1.345242 3.699333 6.355022 1.794680 6.024596 4.085349 3.198058 1.644025 -1.248977 1.471248 -6.879403 -5.609214 -4.114545 -13.958746 3.671184 -4.663070 17.416452 -0.096903 -1.927077 9.184904 -7.316942 2.546295 -1.361691 -80.705513 6.706630 26.285131 11.850881 -20.740253 -2.424630 -0.963653 -1.240481 -4.640466 27.823490 18.741962 10.613179 -7.125000 0.000000 0.000000 0.516345 52.388749 0.093810 11.634263 -1.245533 -2.343838 70.408767 5.594660 21.771614 -12.439314 25.125602 -3.526741 1.261066 -0.474989 -0.890245 -19.927483 21.468569 -8.192620 7.125000 0.000000 0.000000 4.786575 -6.815992 4.199739
0.645107 18.087642 -18.672578 -7.035235 -5.780689 2.647416 -2.207327 3.037420 1.727002 -5.083034 -8.420672 -30.592821 0.160808 9.097084 24.897255 -3.002931 12.098947 9.602677 0.110021 -2.127531 -5.858732 4.053400 -4.500106 5.838609 26.854872 11.374932 -3.258358 -0.332583 -5.658293 23.056516 1.140179 -4.928334 0.021218 -0.040592 -1.299715 3.573855 6.402034 1.886169 6.048731 4.043451 3.324595 1.547371 -1.325454 1.530961 -6.987674 -5.597411 -4.056729 -13.688836 3.724690 -4.626641 17.340868 -0.074420 -1.906556 9.110672 -7.309269 2.548797 -1.364368 -80.729700 6.998744 26.036865 11.818711 -20.697621 -2.412866 -0.965950 -1.230057 -4.540335 27.806090 18.514866 10.487925 -7.125000 0.000000 0.000000 0.542753 52.126524 0.095212 11.631885 -1.254345 -2.349709 70.436450 5.535728 21.960903 -12.517576 25.237106 -3.563287 1.258234 -0.472477 -0.897586 -19.925893 21.482139 -8.194806 7.125000 0.000000 0.000000 4.790388 -6.804891 4.204113
0.646844 18.084279 -18.573303 -7.191163 -6.003809 2.710266 -2.275904 3.022866 1.690635 -4.650886 -8.487593 -30.391822 -0.113020 8.633507 23.427518 -3.155096 12.581480 9.781518 0.078316 -1.746407 -4.806866 4.070559 -4.521329 5.888582 26.956646 11.386388 -2.844210 -0.301120 -5.591681 22.882490 1.105860 -4.842916 -0.105084 -0.031269 -1.127900 3.100960 6.548609 1.984482 6.159538 4.038557 3.478420 1.487915 -1.424020 1.599581 -7.102212 -5.574414 -4.063419 -13.712659 3.743374 -4.640471 17.469276 -0.071497 -1.904771 9.160399 -7.306479 2.560562 -1.369676 -80.742306 7.224215 25.864890 11.788639 -20.656310 -2.401981 -0.968074 -1.217214 -4.415262 27.769602 18.251534 10.335200 -7.125000 0.000000 0.000000 0.554260 51.818482 0.093022 11.628477 -1.248166 -2.346488 70.448362 5.585708 22.051480 -12.558579 25.290607 -3.582870 1.255981 -0.464392 -0.904398 -19.933544 21.364815 -8.153165 7.125000 0.000000 0.000000 4.776097 -6.934009 4.179510
0.648311 18.080623 -18.474195 -7.365342 -6.236367 2.771736 -2.340907 3.011681 1.657461 -4.191850 -8.556137 -30.174172 -0.379742 8.171006 21.972004 -3.289441 13.008989 9.941083 0.038460 -1.265388 -3.479331 4.087133 -4.543912 5.937565 27.081925 11.414760 -2.407762 -0.266952 -5.518882 22.690270 1.079646 -4.777229 -0.223699 -0.021354 -0.941090 2.586839 6.708850 2.084489 6.271246 4.038657 3.635355 1.445402 -1.524678 1.670255 -7.197632 -5.544730 -4.082235 -13.795854 3.753253 -4.664313 17.617151 -0.074127 -1.907273 9.227341 -7.304928 2.573099 -1.375211 -80.749513 7.416377 25.715870 11.758868 -20.614520 -2.391230 -0.969897 -1.203224 -4.302952 27.726103 17.959371 10.164433 -7.125000 0.000000 0.000000 0.563289 51.475834 0.089842 11.624559 -1.239038 -2.340878 70.460091 5.675853 22.129237 -12.593614 25.333127 -3.599216 1.254774 -0.453924 -0.911108 -19.970214 21.199910 -8.105874 7.125000 0.000000 0.000000 4.738377 -7.110797 4.130248
0.652228 18.051961 -18.374981 -7.532636 -6.528887 2.857921 -2.411891 3.003927 1.613235 -3.718827 -8.647293 -29.973676 -0.617610 7.689191 20.446690 -3.505342 13.736396 10.428976 0.030667 -1.123931 -3.089890 4.104880 -4.568766 5.981768 27.200516 11.552228 -1.954796 -0.235174 -5.450601 22.505750 1.081507 -4.781796 -0.312979 -0.015915 -0.805744 2.214555 6.849151 2.191598 6.242626 4.030396 3.779728 1.527815 -1.610390 1.748436 -7.068413 -5.459704 -4.124725 -14.033270 3.725085 -4.712906 17.628745 -0.104908 -1.925214 9.271690 -7.308761 2.578196 -1.378702 -80.716441 7.351712 25.691155 11.728815 -20.565091 -2.380467 -0.968658 -1.180600 -4.376624 27.637322 17.407688 9.839581 -7.125000 0.000000 0.000000 0.570466 50.825738 0.081824 11.616711 -1.222961 -2.324334 70.497153 6.026143 22.234912 -12.626582 25.353503 -3.608798 1.264253 -0.426462 -0.917583 -20.315341 20.730075 -8.071449 7.125000 0.000000 0.000000 4.470097 -7.577331 3.855520
